<?xml version="1.0" encoding="UTF-8"?><svg xmlns="http://www.w3.org/2000/svg" xmlns:xlink="http://www.w3.org/1999/xlink" height="500.1" preserveAspectRatio="xMidYMid meet" version="1.1" viewBox="0.0 0.0 559.4 500.1" width="559.4" zoomAndPan="magnify">
 <defs>
  <clipPath id="clip1">
   <path d="m0 0h559.43v474h-559.43z"/>
  </clipPath>
  <clipPath id="clip2">
   <path d="m48 55h469v445.09h-469z"/>
  </clipPath>
 </defs>
 <g id="surface1">
  <g id="change1_1"><path d="m514.66 318.89l-21.7 15.3 12.5 17 18.4-20.8 25.4 7.8c-7.8-9.5-15.7-18.9-23.5-28.4-3.8 3.1-7.5 6.1-11.1 9.1zm-111.7 153.4c0.4-10.4 0.8-20.8 1.3-31.1l-20.7-1 3.3 32.2-28.4 18.3 44-1.6c0.2-5.7 0.4-11.2 0.5-16.8zm-203.2-221.1c-1.1 35.3-2.2 70.6-3.3 106-1.7 34.5-3.3 69.1-5 103.6h-17.8l-10.1-72.6-9.5-83.6-4.3-0.3-51.401 156.4c-6.3-1.6-12.5-3.3-18.8-4.9 2-21.4 4.601-43.8 8-67 3.3-22.8 7.101-44.7 11.199-65.5 5.102-23.5 10.202-47 15.202-70.5 28.7-0.5 57.3-1.1 85.8-1.6" fill="#446db8"/></g>
  <g id="change2_1"><path d="m367.26 221.69c-1.8 33.4-2.1 70.6 0.2 111 2.4 41.8 7.2 80 13 113.9 2.5 1.3 7.9 3.8 15.2 3.7 6.8-0.1 11.8-2.4 14.3-3.7 1.3-28.9 1.8-59 1.4-90.4-0.2-16.7-0.7-33-1.4-48.9 6.5 16.6 12.7 30.6 17.9 41.7 10.9 23.5 16.1 31.6 25 33.9 5.6 1.4 10.3-0.1 17.1-2.3 7.6-2.5 21.8-8.7 35.5-24.7 0.1-2.2 0.1-9.5-5.1-15.9-2.5-3.1-5.4-4.9-7.4-5.9-2.8 0.3-6.3 0.9-10.1 2.2-7.1 2.5-11.9 6.5-14.8 9.2-3.1-15.7-6.9-32.2-11.6-49.4-7.1-26-15.1-49.8-23.4-71.3-21.9-0.9-43.9-2-65.8-3.1zm-100.5-185.3c-3.3-2.602-6.5-5.301-9.8-7.903l-19.6 24.203-6.9 8.598-11 13.602-36.9 32.499-4 3.5-7.1 2-7.7 2.3c-1.3 1.5-4 4-8.2 5.6-5.9 2.2-11.1 1-13 0.5l-33.2 12.6-11.602 14.3-8.797 11-14.602 18.1-24.699-17.8-9.801-7.1-3 3.3-9.3 10.3c9.601 13.7 18.5 24.3 25.5 32.1 10.3 11.4 14.8 14.8 20.601 15.4 6.5 0.7 12.199-2.4 18.699-6.6 1.2-0.8 2.5-1.6 3.801-2.5 2.699-1.8 5.1-3.7 7.3-5.5 4.3-3.6 7.5-7.1 9.8-9.7l-1.5 63.9 6.3-0.1 10.5-0.2 74.5-1.5-2.2-42.8-0.7-14.1-2.3-45.5c3.9-3.7 7.6-7.3 11.1-10.6 3.4-3.3 6.6-6.5 9.6-9.5 3.4-3.4 6.5-6.6 9.3-9.4 14.1-14.4 17-18.3 19.7-22.999 4.6-8 5.4-12.903 11.5-31.7 1.7-5.3 3.3-10 4.8-14.3 1.7-5 3.3-9.301 4.5-12.5-0.5-0.602-1.1-1-1.6-1.5zm120.1 47.3c-6.1-7.8-6.3-17.8-1.3-23.5 3.9-4.5 9.8-5 11.5-5.101 2.6-9.102 11.1-15.102 19.8-14.301 7.3 0.699 13.7 5.902 16.1 13.402 1.6 0.7 5.2 2.399 7.7 6.297 4.6 7 1.8 14.903 1.5 15.903 3.6-0.7 7.2 0.3 9.2 2.8 3 3.598 2.5 10.2-2.3 14.297 4.2-0.297 8.2 1.703 10.1 5.102 2.5 4.3 1.3 10.4-3.2 13.8-16.3 10.8-32.5 21.5-48.8 32.3l-6.1-48.901-14.2-12.098" fill="#f9e1c7"/></g>
  <g id="change3_1"><path d="m401.66 123.69l-9.7-1.6c-7.5-7.2-17.5-18.5-25.8-34.301-6.1-11.699-9.5-22.5-11.5-31-2.1-0.098-6.2-0.098-10.6 2-6.7 3.102-9.7 8.801-10.6 10.602 0.5 11.898 2.6 29.199 9.8 48.699 7.2 19.6 16.9 34.1 24.3 43.6-1 7.5-2.7 18.9-6 32.7-2.6 11.1-4 14.5-2.3 18.9 4.6 11.7 24.2 13.9 36.4 15.2 10.6 1.2 34.7 3.8 41.9-8.1 1-1.7 1.5-3.2 2.3-15 0.8-10.7 1.2-19.6 1.4-25.8 15.9-11.9 28.4-22.9 37.4-31.4 13-12.2 18.1-18.6 20.8-22.1 8.5-11.2 13.8-21.7 17.1-29.301-0.3-2-1-5.898-3.7-9.898-3.2-4.7-7.3-7-9.2-7.801-7.8 9.101-20.2 21.4-37.8 32.3-16.4 10.1-31.7 15.5-42.9 18.5-1.8 0.5-6.1 1.5-11.4 0-5.5-1.6-8.7-4.8-9.9-6.2zm-263.7-30.901c-1.3-0.898-7.9-5.5-9.4-14.5-1.3-7.199 1.5-12.801 2.5-14.398-4.2-5.2-3.8-11.903-0.3-15.102 3.2-2.898 8-2 8.6-1.801 1-5.5 5.3-9.297 9.8-9.199 4.5 0 7.3 3.801 7.7 4.301 3.9-3 9.1-3.399 13-1 4.5 2.699 5.1 7.801 5.2 8.398 1.7 0.602 5.9 2.403 8.3 6.801 3.2 6 1.5 14.301-4.6 20.301-13.7 5.301-27.3 10.801-40.8 16.199" fill="#3ca27a"/></g>
  <g id="change4_2"><path d="m393.06 68.289c-0.8 1.699-2 4.199-3.1 7.301-1.1 3.101-6.6 21.301 0.1 32 1.6 2.6 3.5 4.2 4.6 5 2.3 1.8 4.7 3.6 7 5.5v5.5c1.2 1.4 4.5 4.6 9.8 6.1 5.2 1.5 9.6 0.5 11.4 0-0.7-3.5-1.3-7.8-1.2-12.9 0.1-4.4 0.6-8.2 1.2-11.4 2.8-0.5 4.9-3 4.9-5.8 0-2.801-2.1-5.399-4.9-5.801-1.1-1.699-2.3-4-3.1-7.098-1.7-7 0.4-12.8 1.4-15.101 1.1-2.699 0.4-5.699-1.6-7.301-2.4-2-6.4-1.699-8.8 0.902-0.6 0.797-4 4.598-9.7 5.098-3.9 0.301-6.9-1.301-8-2zm-220.6-8.398c0.8 1.699 2 4.199 3.1 7.3 1.1 3.098 6.6 21.297-0.1 32-1.6 2.599-3.5 4.199-4.6 4.999-2.3 1.8-4.7 3.6-7 5.5v5.5c-1.2 1.4-4.5 4.6-9.8 6.1-5.2 1.5-9.6 0.5-11.4 0 0.7-3.5 1.3-7.8 1.2-12.9-0.1-4.4-0.6-8.2-1.2-11.402-3.9 0-6.7-3.398-6.3-6.597 0.3-2.801 3-5.102 6.3-5.102 1.1-1.699 2.4-4.098 3.1-7.098 2.1-8.8-1.8-16.3-3.1-18.402 2 2.801 5.6 3.699 8.3 2.5 2.1-1 3.5-3.098 3.7-5.5 2.3 0.699 4.9 1.301 7.7 1.801 3.6 0.699 7 1.101 10.1 1.301" fill="#eca97c"/></g>
  <g clip-path="url(#clip1)" id="change4_1">
   <path d="m266.66 36.289c4.4-2 10.8-5.5 16.7-11.699 8.6-9 14.8-21.899 12.2-24.199-1.7-1.5004-7.7 0.8004-27.2 17.5 0.8-6.602 0.8-9.9027 0-10.102-1.3-0.3007-4.5 7-9.7 22 2.6 2.199 5.3 4.402 8 6.5zm-229.7 119.4c-0.301-1.6-0.703-3.9-1.5-6.5-2.602-8.8-7.703-17.1-9.203-16.6-0.699 0.3-0.899 2.9 1.402 12.9-20.601-12.6-26.301-13.9-27.402-12.5-1.8986 2.3 6.9998 13.5 15.203 20.8 5.398 4.8 10.5 8 14.199 10 2.399-2.7 4.899-5.4 7.301-8.1zm475.8-68.799c2.7 3.898 3.4 7.8 3.7 9.898 4.5-6.199 8.9-12.398 13.4-18.598 6.2-2.703 16.5-8.402 24-19.8 1.1-1.7 7.3-11.102 5.1-13.403-1.5-1.597-7.7 0.203-29.1 15.903 2.2-9.5 3-14.301 2.3-14.5-0.9-0.301-4.1 6.8-9.7 21.199-5.2 4.5-10.4 9-15.6 13.398 1.6 1.102 3.9 3 5.9 5.903zm-164.2-30.102l-10.1-21.098c0.8-15 0.3-22.703-1.5-23-1.2-0.203-3 3-5.4 9.598-13.8-17.199-18.6-19.801-20.3-18.801-2.6 1.5003 0.4 11.703 2.3 16.602 3.2 8.5 8.1 14.301 11.5 17.699 2.8 10.602 5.5 21.102 8.3 31.699 1.1-2.097 3.4-5.898 7.7-9 2.9-2.097 5.6-3.097 7.5-3.699zm-267.2 399.5l-1.8 14.3 11 3.2 6.199-13.5zm110 2l-2.2 15.5h-12.5l-2.8-16 17.5 0.5" fill="#eca97c"/>
  </g>
  <g id="change5_1"><path d="m445.76 290.09c5.3 18.5 8.1 40.3 19.9 56.1 0.9 1.2 3 0.1 2.1-1.2-11.4-16.8-14.5-38.2-20.2-57.4-6.3-21-13.4-41.8-20.4-62.6-0.2-0.7-1.4-0.4-1.2 0.3 6.8 21.6 13.6 43.1 19.8 64.8zm30.3 61.2c3.4-0.2 6.8-2.6 9.7-4.3 3.7-2.1 7.3-4.5 10.9-6.8 1-0.6 0.4-2.2-0.8-1.9-3.2 0.9-5.9 3.7-8.7 5.5-3.5 2.3-7.3 5.1-11.3 6.4-0.6 0.1-0.5 1.1 0.2 1.1zm-26.4-6.2c3.5 7.3 12.6 13.7 20.7 9.5 1.2-0.6 0.4-2.5-0.9-2.2-14.4 3.6-18.6-10.8-22.6-21.5-4.3-11.6-8.2-23.3-11.9-35.1-7.2-23.3-12.9-47-17.8-70.8-0.2-1-1.7-0.6-1.6 0.4 4.9 28 12 55.7 20.8 82.8 4 12.2 7.7 25.3 13.3 36.9zm33.8 13.1c6.5-3.4 14-6.1 19.8-10.5 0.8-0.6 0.4-2.1-0.7-1.7-6.9 2.7-13.2 7.5-19.7 11.3-0.5 0.3 0 1.2 0.6 0.9zm-56-35.5c4.7 13 10.8 25.5 19.5 36.2 4.2 5.1 7.9 9.6 14.9 9.3 6.2-0.2 12.5-2.3 17.3-6.2 0.9-0.8-0.3-2.2-1.3-1.6-6.8 3.7-16.8 8.7-23.8 2.9-5-4.1-8.9-10.3-12.3-15.7-7-11.3-11.8-23.8-15.6-36.5-8.4-27.6-13.9-56.1-19-84.5-0.2-0.9-1.8-0.7-1.7 0.2 2.2 17.2 5.8 34.3 9.6 51.1 3.6 15.1 7.2 30.3 12.4 44.8zm-15.7-16.2c-1.3-2.5-2.7-5-4-7.5 0.1 2.6 0.1 5.1 0 7.7 1.3 0 2.7-0.1 4-0.2zm91.6 48.2c-10.7 8.3-22.7 16.1-35.4 21.2-10.2 4.1-19.8 1.6-26.7-6.9-3.7-4.6-6.1-10.1-8.2-15.6-2.9-7.4-5.9-14.7-9.1-22-3.5-7.9-7.3-15.5-11.3-23.1-4.3 1-9.8-0.6-13.4-2.6-0.6-0.3-0.2-1.3 0.4-1 2 0.8 4.1 1.5 6.2 1.8-0.5-4.3-0.9-8.6-1.2-12.9-0.1-0.2-0.2-0.3-0.3-0.5-0.3-0.5-0.1-0.9 0.1-1.2-0.6-8.9-0.9-17.9-1.6-26.8-1.2-13.9-2.8-27.8-4.4-41.6-0.1-0.7 1.1-0.8 1.2-0.2 2.1 13.5 3.7 27.2 5 40.8 1 9.8 2.2 19.9 2.7 29.9 6 10.4 11.3 21.2 16.3 32.1 5.1 11.1 8.9 22.8 14.3 33.7 2.8 5.7 6.7 11.2 12.5 14.2 7.3 3.7 14.7 1.1 21.5-2.2 10.7-5.2 20.9-11.5 30.7-18.1 0.8-0.4 1.3 0.6 0.7 1zm-108.9-76.9c-2.1-18.4-3.5-37.1-6.7-55.3-0.1-0.5-0.9-0.4-0.9 0.1 0.8 19.1 3.7 38.2 5.7 57.2 2 18.4 4 36.9 5.6 55.4 3.4 37.5 5.3 75.3 3.5 113-0.1 1.5 2.2 1.5 2.3 0 2-38-0.1-76.1-3.6-114-1.7-18.9-3.7-37.6-5.9-56.4zm-9.3 2.9c-1.8-19-4.5-38.3-3.9-57.4 0-0.7-1-0.7-1 0-1.3 18.9 1.5 38.5 3.1 57.4 1.5 18.4 3.2 36.8 4.6 55.2 2.9 37.5 5.2 75 4.6 112.6 0 1.8 2.7 1.8 2.8 0 0.8-37.6-1.6-75.2-4.9-112.6-1.8-18.3-3.6-36.7-5.3-55.2zm-14.8-58.5c-2.1 75.3 9.8 150.4 12.1 225.6 0.1 1.8 2.9 1.8 2.8 0-2.4-75.4-12.6-150.2-13.7-225.6 0-0.8-1.2-0.8-1.2 0zm-170.5-28c-3.9 0-7.1 3.2-7.1 7.1s3.2 7.1 7.1 7.1c0.4 0 0.7 0 1.1-0.1l-0.7-14.1h-0.4zm-14.1 35.6c-3.9 0-7.1 3.2-7.1 7.1s3.2 7.1 7.1 7.1 7.1-3.2 7.1-7.1-3.2-7.1-7.1-7.1zm-148.8-74.1c0.199 3.7 3.297 6.7 7.098 6.7 2.3 0 4.402-1.1 5.699-2.8l-9.797-7.1zm228.8-119.3c-3.9 0-7.1 3.199-7.1 7.097 0 3.301 2.2 6 5.3 6.801 1.7-5 3.3-9.301 4.5-12.5-0.5-0.398-1.1-0.898-1.6-1.301-0.5-0.097-0.8-0.097-1.1-0.097zm-28.4 16.398l-6.9 8.602c0.7 3.199 3.5 5.597 6.9 5.597 3.9 0 7.1-3.199 7.1-7.097 0-4-3.2-7.102-7.1-7.102zm-10.9 32.902c-3.9 0-7.1 3.2-7.1 7.098 0 3.902 3.2 7.102 7.1 7.102s7.1-3.2 7.1-7.102c0-3.898-3.2-7.098-7.1-7.098zm-14.2 38.999c-3.9 0-7.1 3.2-7.1 7.1 0 2.8 1.6 5.1 3.9 6.3 3.4-3.3 6.6-6.5 9.6-9.5-1.2-2.3-3.6-3.9-6.4-3.9zm-26.5-11.4c0-2.4-1.2-4.6-3.1-5.9l-11 5.5v0.3c0 3.9 3.2 7.1 7.1 7.1 3.8 0.1 7-3.1 7-7zm-49.2 66.8c-3.9 0-7.1 3.2-7.1 7.1s3.2 7.1 7.1 7.1 7.1-3.2 7.1-7.1-3.2-7.1-7.1-7.1zm53.4-8.1c0-3.9-3.2-7.1-7.1-7.1s-7.1 3.2-7.1 7.1 3.2 7.1 7.1 7.1 7.1-3.2 7.1-7.1zm-66.6 68.8c-3.9 0-7.1 3.2-7.1 7.1 0 1.9 0.7 3.6 2 4.9l10.5-0.2c1.1-1.2 1.8-2.9 1.8-4.7-0.1-3.9-3.3-7.1-7.2-7.1zm31.7-27.2c-3.9 0-7.1 3.2-7.1 7.1s3.2 7.1 7.1 7.1 7.1-3.2 7.1-7.1-3.2-7.1-7.1-7.1zm-20.1-53.9c3.9 0 7.1-3.2 7.1-7.1s-3.2-7.1-7.1-7.1-7.1 3.2-7.1 7.1 3.2 7.1 7.1 7.1zm-72.101 20.4c-3.898 0-7.101 3.2-7.101 7.1s3.203 7.1 7.101 7.1c3.899 0 7.102-3.2 7.102-7.1s-3.203-7.1-7.102-7.1zm34.2 14.1c-3.899 0-7.098 3.2-7.098 7.1 0 2.2 1 4.1 2.5 5.4l11.099-8c-0.9-2.6-3.5-4.5-6.501-4.5zm-3-32.8c-2 0-3.801-0.8-5.098-2.2l8.797-10.9c2 1.3 3.302 3.5 3.302 6 0.1 3.9-3.099 7.1-7.001 7.1" fill="#ef4a46"/></g>
  <g clip-path="url(#clip2)" id="change6_1">
   <path d="m500.56 328.49c-0.8-0.1-0.8 0.9-0.4 1.3 2.4 1.8 4.9 3.1 6.9 5.4 2.1 2.3 3.5 5 4.5 7.9 0.6 1.9 3.6 1.1 3-0.8-1.9-5.9-7.3-13.1-14-13.8zm-6.4 4.5c-1-0.2-1.5 1.1-0.7 1.6 2.6 1.6 4.8 3.2 6.5 5.9 1.8 2.8 2.8 6 3.7 9.2 0.5 1.9 3.5 1.1 3-0.8-1.9-6.2-5.5-14.2-12.5-15.9zm-91.3 123.9c-2.5-0.8-5.3-0.5-7.9-0.7-2.9-0.3-5.7-0.9-8.6-1-0.6 0-0.9 0.9-0.3 1.2 2.7 1.3 5.7 1.9 8.6 2.3 2.6 0.4 5.7 1 8.2 0.2 1-0.3 1-1.7 0-2zm0.3-8.5c-2.9 0.2-5.5 1.2-8.4 1.2-3.1 0-6.2-0.6-9.3-1.1-1.3-0.2-1.7 1.4-0.5 1.9 5.7 2.2 13.3 3.3 18.9 0.3 1.1-0.5 0.6-2.4-0.7-2.3zm108.9-363c-2.4-2.7-5.3-6-9-6.403-0.9-0.097-1.2 1.301-0.4 1.602 5.5 2.699 11.5 9 11.5 15.5 0 1.801 2.8 1.801 2.8 0-0.2-4.199-2.2-7.602-4.9-10.699zm-158.1-29.301c-8.8-1.301-17.3 5.101-21.7 12.301-0.7 1.097 0.8 2.097 1.7 1.3 6.2-5.601 10.3-12.402 19.8-12.101 0.8 0 1-1.399 0.2-1.5zm85.2 102.5c0.5 5.7 0.7 11.5 0.7 17.3 0 5.7-0.7 11.6-0.2 17.3 0.1 0.8 1.3 1.1 1.5 0.2 2.2-11.1 0.2-23.7-1.2-34.8-0.1-0.5-0.9-0.5-0.8 0zm-69.1-11.8c-1.7 8.1-3.9 16.7-3.9 25 0 0.6 1 0.8 1.1 0.1 1.5-8.3 2.6-16.7 3.6-25.1 0-0.3-0.7-0.4-0.8 0zm0.2-3.4c-0.1 0.5-0.3 1.1-0.1 1.6 0.1 0.2 0.3 0.2 0.4 0.1 0.3-0.4 0.3-1 0.4-1.5 0.2-0.5-0.6-0.7-0.7-0.2zm52.8-14.8c-6.9-1.2-16.5 1.1-20.8-6.1-0.4-0.7-1.6-0.2-1.3 0.5 2.7 7.6 15.3 8.8 22.1 7.6 1-0.1 1-1.8 0-2zm-15.2-12c2.9 0.1 6.6-0.6 8.4-3.1 0.4-0.6-0.4-1.1-0.9-0.9-1.1 0.6-2.1 1.4-3.2 2-1.3 0.6-2.8 1.2-4.3 1.3-0.4 0.1-0.4 0.7 0 0.7zm15.7-20c-0.4-0.301-0.8 0.301-0.5 0.699 0.6 0.699 1 1.5 1.1 2.301h-0.3c-1 0.199-2.3 0.5-3.1 1.3-0.3 0.3 0 0.7 0.4 0.7 1-0.1 2-0.7 3-1-0.1 0.6-0.3 1.1-0.7 1.6-0.1 0.1-0.2 0.3-0.1 0.5s0.1 0.3 0.4 0.4c0.2 0.1 0.4 0 0.5-0.1 1.4-1.9 1.4-4.9-0.7-6.4zm-308.4 71.6c-1.2 11.1-2.8 23.3-1.3 34.4 0.1 0.4 0.7 0.4 0.8 0 1.6-11.2 0.9-23.1 1.5-34.4 0-0.6-0.9-0.6-1 0zm82.8-8.8c0.1 0.5 0.8 0.5 0.8 0 0.5-7.6-0.4-15.6-2.3-23-0.1-0.5-0.9-0.3-0.8 0.2 1.9 7.6 1.5 15.1 2.3 22.8zm-34.8-44.4c-2.3 1.8-4 4.2-6.7 5.6-4.1 2.1-8.5 0.8-12.8 0.1-1.5-0.2-2.1 1.9-0.6 2.3 7.9 2.2 16.9 0.8 21-7.1 0.1-0.6-0.4-1.3-0.9-0.9zm-6.1-6.7c0.2 0.1 0.3-0.2 0.1-0.3-3.8-1.7-7.7-3.9-10.4-7.2-0.5-0.6-1.3 0.3-0.9 0.9 2.9 3.6 7 5 11.2 6.6zm-16.2-17.399c-0.3-0.2-0.7-0.403-1-0.5 0.2-0.903 0.6-1.7 1.5-2 0.6-0.2 0.3-1-0.2-0.903-1.5 0.301-2.3 1.801-2.6 3.203-0.3 1.5 0.3 3 1.5 3.899 0.6 0.398 1.2-0.5 0.7-0.899-0.7-0.601-1.1-1.3-1.1-2.101 0.2 0.101 0.5 0.101 0.7 0.199 0.4 0.102 0.7 0.199 1.1 0.199 0.2 0 0.4-0.297 0.2-0.5-0.2-0.199-0.5-0.398-0.8-0.597zm63.9 387.4c-3.9-1.3-9.2-2.9-15.6-4.5h-12.5v18.9h44.7c0.2-1.3 0.3-3.4-0.6-5.5-1.5-3.4-4.9-5.3-16-8.9zm-125.2-7.7c3.699 1.1 7.3 2.2 11 3.2-0.301 4.3-0.598 8.5-0.801 12.8-6.598 6-17.297 13.4-30.399 13.5-2.398 0-9.898 0.1-11.101-3.1-1.297-3.6 6.203-9.5 12.601-14.4 7.2-5.7 13.899-9.5 18.7-12" fill="#3b5572"/>
  </g>
 </g>
</svg>